<?xml version="1.0" standalone="no"?>
<svg
	xmlns:xlink="http://www.w3.org/1999/xlink"
	xmlns="http://www.w3.org/2000/svg" id="svgId" width="1923.2833343505858px" height="949.5999999999999px" transform="translate(0 0)" style="transform: scale(0.856868);">
	<style title="svgStyle">rect {
    stroke: #eee;
}

#tree &gt; g.output &gt; rect {
    fill: #9FC4C6;
    fill-opacity: .8;
}

#tree &gt; g.output_implicit &gt; rect {
    fill: #C7D06D;
    fill-opacity: .8;
}

#tree &gt; g.input &gt; rect {
    fill: #30B0AD;
    fill-opacity: .8;
}

#tree &gt; g.unconnected_input &gt; rect {
    fill: #F42F0D;
    fill-opacity: .8;
}

#tree &gt; g.subsystem &gt; rect {
    cursor: pointer;
    fill-opacity: .8;
    fill: #6092B5;
}

#tree &gt; g.component &gt; rect {
    cursor: pointer;
    fill-opacity: .8;
    fill: #02BFFF;
}

#tree &gt; g.input_group &gt; rect {
    cursor: pointer;
    fill-opacity: .8;
    fill: Orchid;
}

#tree &gt; g.output_group &gt; rect {
    cursor: pointer;
    fill-opacity: .8;
    fill: #888;
}

#tree &gt; g.minimized &gt; rect {
    cursor: pointer;
    fill-opacity: .8;
    fill: #555555;
}

#tree &gt; g.minimized &gt; text {
    fill: white;
}

#tree &gt; g.autoivc_input &gt; rect {
    cursor: pointer;
    fill-opacity: .8;
    fill: #ff7000;
}

text {
}

#svgId g.partition_group &gt; text {
    text-anchor: end;
    pointer-events: none;
    font-family: helvetica, sans-serif;
    font-size: 16px;
}

text.offgridLabel {
    font-family: helvetica, sans-serif;
    font-size: 16px;
}

#svgId g.solver_group &gt; text {
    text-anchor: end;
    pointer-events: none;
    font-family: helvetica, sans-serif;
    font-size: 16px;
}

g.component_box &gt; rect {
    stroke: #555;
    stroke-width: 2;
    fill: none;
}

.bordR1, .bordR2, .bordR3, .bordR4, .ssMid, .grpMid, .svMid, .vertical_stabilizerMid, .vMid, .sgrpMid, .grpsMid {
    stroke: none;
    stroke-width: 0;
    fill-opacity: 1;
}

[class^=n2_hover_elements] {
    pointer-events: none;
}

.background {
    fill: #eee;
}

.horiz_line, .vert_line {
    stroke: white;
}

g.solver_none &gt; rect {
    fill: #8dd3c7;
    cursor: pointer;
    fill-opacity: .8;
}

g.solver_ln_lnbj &gt; rect {
    fill: #ffffb3;
    cursor: pointer;
    fill-opacity: .8;
}

g.solver_nl_nlbj &gt; rect {
    fill: #ffffb3;
    cursor: pointer;
    fill-opacity: .8;
}

g.solver_ln_scipy &gt; rect {
    fill: #bebada;
    cursor: pointer;
    fill-opacity: .8;
}

g.solver_ln_runonce &gt; rect {
    fill: #fb8072;
    cursor: pointer;
    fill-opacity: .8;
}

g.solver_nl_runonce &gt; rect {
    fill: #fb8072;
    cursor: pointer;
    fill-opacity: .8;
}

g.solver_ln_direct &gt; rect {
    fill: #80b1d3;
    cursor: pointer;
    fill-opacity: .8;
}

g.solver_ln_petsckrylov &gt; rect {
    fill: #fdb462;
    cursor: pointer;
    fill-opacity: .8;
}

g.solver_ln_lnbgs &gt; rect {
    fill: #b3de69;
    cursor: pointer;
    fill-opacity: .8;
}

g.solver_nl_nlbgs &gt; rect {
    fill: #b3de69;
    cursor: pointer;
    fill-opacity: .8;
}

g.solver_ln_user &gt; rect {
    fill: #fccde5;
    cursor: pointer;
    fill-opacity: .8;
}

g.solver_nl_newton &gt; rect {
    fill: #d9d9d9;
    cursor: pointer;
    fill-opacity: .8;
}

g.solver_broyden &gt; rect {
    fill: #bc80bd;
    cursor: pointer;
    fill-opacity: .8;
}

g.solver_solve_linear &gt; rect {
    fill: #ccebc5;
    cursor: pointer;
    fill-opacity: .8;
}

g.solver_solve_nonlinear &gt; rect {
    fill: #ccebc5;
    cursor: pointer;
    fill-opacity: .8;
}

g.solver_other &gt; rect {
    fill: #ffed6f;
    cursor: pointer;
    fill-opacity: .8;
}

</style>
	<defs>
		<marker id="arrow" viewBox="0 -5 10 10" refX="5" refY="0" markerWidth="3.344" markerHeight="3.344" orient="auto">
			<path d="M0,-5L10,0L0,5L0,-5" class="arrowHead"></path>
		</marker>
		<clipPath id="partitionTreeClip">
			<rect id="tree-clip-rect" x="0" y="0" width="1200" height="919.5999999999999"></rect>
		</clipPath>
		<clipPath id="n2MatrixClip">
			<rect id="matrix-clip-rect" x="-1" y="-1" width="921.5999999999999" height="921.5999999999999"></rect>
		</clipPath>
		<clipPath id="solverTreeClip">
			<rect id="solver-clip-rect" x="0" y="0" width="1200" height="919.5999999999999"></rect>
		</clipPath>
		<g id="matrix-connector-arrow" width="10" height="10">
			<path d="M0,3 h2 q5,0 5,5 h1 l-3,2 l-3,-2 h1 q0,-1 -1,-1 h-2 z"></path>
		</g>
		<g id="matrix-connector-square" width="10" height="10">
			<rect x="2" y="2" width="6" height="6"></rect>
		</g>
	</defs>
	<g id="tree" clip-path="url(#partitionTreeClip)" height="919.5999999999999" width="578.6666870117188" transform="translate(0 15)">
		<g class="partition_group minimized" transform="translate(425.3166809082031, 418)">
			<rect width="153.35000610351565" height="83.6" id="gross_weight_coupling_group_velocity_coupling_group_parasite_drag_comp" rx="12" ry="12"></rect>
			<text dy=".35em" transform="translate(145.35000610351562, 41.79999923706055)" style="opacity: 1;">parasite_drag_comp</text>
		</g>
		<g class="partition_group minimized" transform="translate(425.3166809082031, 501.6000061035156)">
			<rect width="153.35000610351565" height="83.6" id="gross_weight_coupling_group_velocity_coupling_group_opt_drag_polar_comp" rx="12" ry="12"></rect>
			<text dy=".35em" transform="translate(145.35000610351562, 41.79999923706055)" style="opacity: 1;">opt_drag_polar_comp</text>
		</g>
		<g class="partition_group minimized" transform="translate(55.66667175292969, 0)">
			<rect width="523.0000152587891" height="83.6" id="_auto_ivc" rx="12" ry="12"></rect>
			<text dy=".35em" transform="translate(515, 41.79999923706055)" style="opacity: 1;">Auto-IVC</text>
		</g>
		<g class="partition_group minimized" transform="translate(55.66667175292969, 83.5999984741211)">
			<rect width="523.0000152587891" height="83.6" id="inputs_comp" rx="12" ry="12"></rect>
			<text dy=".35em" transform="translate(515, 41.79999923706055)" style="opacity: 1;">inputs_comp</text>
		</g>
		<g class="partition_group minimized" transform="translate(55.66667175292969, 167.1999969482422)">
			<rect width="523.0000152587891" height="83.6" id="update_geo_params_comp" rx="12" ry="12"></rect>
			<text dy=".35em" transform="translate(515, 41.79999923706055)" style="opacity: 1;">update_geo_params_comp</text>
		</g>
		<g class="partition_group subsystem" transform="translate(55.66667175292969, 250.8000030517578)">
			<rect width="202.48333740234375" height="334.4" id="gross_weight_coupling_group" rx="12" ry="12"></rect>
			<text dy=".35em" transform="translate(194.48333740234375, 167.1999969482422)" style="opacity: 1;">gross_weight_coupling_group</text>
		</g>
		<g class="partition_group minimized" transform="translate(258.1500244140625, 250.8000030517578)">
			<rect width="320.51667785644537" height="83.6" id="gross_weight_coupling_group_gross_weight_comp" rx="12" ry="12"></rect>
			<text dy=".35em" transform="translate(312.5166931152344, 41.79999923706055)" style="opacity: 1;">gross_weight_comp</text>
		</g>
		<g class="partition_group minimized" transform="translate(258.1500244140625, 334.3999938964844)">
			<rect width="320.51667785644537" height="83.6" id="gross_weight_coupling_group_oswald_eff_approx_comp" rx="12" ry="12"></rect>
			<text dy=".35em" transform="translate(312.5166931152344, 41.79999923706055)" style="opacity: 1;">oswald_eff_approx_comp</text>
		</g>
		<g class="partition_group subsystem" transform="translate(258.1500244140625, 418)">
			<rect width="167.1666717529297" height="167.2" id="gross_weight_coupling_group_velocity_coupling_group" rx="12" ry="12"></rect>
			<text dy=".35em" transform="translate(159.1666717529297, 83.5999984741211)" style="opacity: 1;">velocity_coupling_group</text>
		</g>
		<g class="partition_group subsystem" transform="">
			<rect width="55.66667175292969" height="919.5999999999999" id="" rx="12" ry="12"></rect>
			<text dy=".35em" transform="translate(47.66667175292969, 459.79998779296875)" style="opacity: 1;">model</text>
		</g>
		<g class="partition_group minimized" transform="translate(55.66667175292969, 585.2000122070312)">
			<rect width="523.0000152587891" height="83.6" id="stat_stab_comp" rx="12" ry="12"></rect>
			<text dy=".35em" transform="translate(515, 41.79999923706055)" style="opacity: 1;">stat_stab_comp</text>
		</g>
		<g class="partition_group minimized" transform="translate(55.66667175292969, 668.7999877929688)">
			<rect width="523.0000152587891" height="83.6" id="dyn_stab_comp" rx="12" ry="12"></rect>
			<text dy=".35em" transform="translate(515, 41.79999923706055)" style="opacity: 1;">dyn_stab_comp</text>
		</g>
		<g class="partition_group minimized" transform="translate(55.66667175292969, 752.4000244140625)">
			<rect width="523.0000152587891" height="83.6" id="aero_outputs_comp" rx="12" ry="12"></rect>
			<text dy=".35em" transform="translate(515, 41.79999923706055)" style="opacity: 1;">aero_outputs_comp</text>
		</g>
		<g class="partition_group minimized" transform="translate(55.66667175292969, 836)">
			<rect width="523.0000152587891" height="83.6" id="range_comp" rx="12" ry="12"></rect>
			<text dy=".35em" transform="translate(515, 41.79999923706055)" style="opacity: 1;">range_comp</text>
		</g>
	</g>
	<g id="highlight-bar" height="919.5999999999999" width="8" transform="translate(578.6666870117188, 15)"></g>
	<g id="solver_tree" clip-path="url(#solverTreeClip)" height="919.5999999999999" transform="translate(1528.2667236328125, 15)">
		<g class="solver_nl_runonce solver_group minimized" transform="translate(0, 418)">
			<rect width="113.54998779296876" height="83.6" id="gross_weight_coupling_group_velocity_coupling_group_parasite_drag_comp" rx="12" ry="12"></rect>
			<text dy=".35em" transform="translate(105.54998779296875, 41.79999923706055)" style="opacity: 1;">NL: RUNONCE</text>
		</g>
		<g class="solver_nl_runonce solver_group minimized" transform="translate(0, 501.6000061035156)">
			<rect width="113.54998779296876" height="83.6" id="gross_weight_coupling_group_velocity_coupling_group_opt_drag_polar_comp" rx="12" ry="12"></rect>
			<text dy=".35em" transform="translate(105.54998779296875, 41.79999923706055)" style="opacity: 1;">NL: RUNONCE</text>
		</g>
		<g class="solver_none solver_group minimized" transform="">
			<rect width="281.46665954589844" height="83.6" id="_auto_ivc" rx="12" ry="12"></rect>
			<text dy=".35em" transform="translate(273.4666748046875, 41.79999923706055)" style="opacity: 1;">None</text>
		</g>
		<g class="solver_none solver_group minimized" transform="translate(0, 83.5999984741211)">
			<rect width="281.46665954589844" height="83.6" id="inputs_comp" rx="12" ry="12"></rect>
			<text dy=".35em" transform="translate(273.4666748046875, 41.79999923706055)" style="opacity: 1;">None</text>
		</g>
		<g class="solver_nl_runonce solver_group minimized" transform="translate(0, 167.1999969482422)">
			<rect width="281.46665954589844" height="83.6" id="update_geo_params_comp" rx="12" ry="12"></rect>
			<text dy=".35em" transform="translate(273.4666748046875, 41.79999923706055)" style="opacity: 1;">NL: RUNONCE</text>
		</g>
		<g class="solver_nl_nlbgs solver_group subsystem" transform="translate(191.066650390625, 250.8000030517578)">
			<rect width="90.40000915527344" height="334.4" id="gross_weight_coupling_group" rx="12" ry="12"></rect>
			<text dy=".35em" transform="translate(82.40000915527344, 167.1999969482422)" style="opacity: 1;">NL: NLBGS</text>
		</g>
		<g class="solver_nl_nlbgs solver_group minimized" transform="translate(0, 250.8000030517578)">
			<rect width="191.066650390625" height="83.6" id="gross_weight_coupling_group_gross_weight_comp" rx="12" ry="12"></rect>
			<text dy=".35em" transform="translate(183.066650390625, 41.79999923706055)" style="opacity: 1;">NL: NLBGS</text>
		</g>
		<g class="solver_nl_runonce solver_group minimized" transform="translate(0, 334.3999938964844)">
			<rect width="191.066650390625" height="83.6" id="gross_weight_coupling_group_oswald_eff_approx_comp" rx="12" ry="12"></rect>
			<text dy=".35em" transform="translate(183.066650390625, 41.79999923706055)" style="opacity: 1;">NL: RUNONCE</text>
		</g>
		<g class="solver_nl_nlbj solver_group subsystem" transform="translate(113.54998779296875, 418)">
			<rect width="77.51666259765625" height="167.2" id="gross_weight_coupling_group_velocity_coupling_group" rx="12" ry="12"></rect>
			<text dy=".35em" transform="translate(69.51666259765625, 83.5999984741211)" style="opacity: 1;">NL: NLBJ</text>
		</g>
		<g class="solver_nl_runonce solver_group subsystem" transform="translate(281.4666748046875, 0)">
			<rect width="113.54998779296874" height="919.5999999999999" id="" rx="12" ry="12"></rect>
			<text dy=".35em" transform="translate(105.54998779296875, 459.79998779296875)" style="opacity: 1;">NL: RUNONCE</text>
		</g>
		<g class="solver_nl_runonce solver_group minimized" transform="translate(0, 585.2000122070312)">
			<rect width="281.46665954589844" height="83.6" id="stat_stab_comp" rx="12" ry="12"></rect>
			<text dy=".35em" transform="translate(273.4666748046875, 41.79999923706055)" style="opacity: 1;">NL: RUNONCE</text>
		</g>
		<g class="solver_nl_runonce solver_group minimized" transform="translate(0, 668.7999877929688)">
			<rect width="281.46665954589844" height="83.6" id="dyn_stab_comp" rx="12" ry="12"></rect>
			<text dy=".35em" transform="translate(273.4666748046875, 41.79999923706055)" style="opacity: 1;">NL: RUNONCE</text>
		</g>
		<g class="solver_nl_runonce solver_group minimized" transform="translate(0, 752.4000244140625)">
			<rect width="281.46665954589844" height="83.6" id="aero_outputs_comp" rx="12" ry="12"></rect>
			<text dy=".35em" transform="translate(273.4666748046875, 41.79999923706055)" style="opacity: 1;">NL: RUNONCE</text>
		</g>
		<g class="solver_nl_runonce solver_group minimized" transform="translate(0, 836)">
			<rect width="281.46665954589844" height="83.6" id="range_comp" rx="12" ry="12"></rect>
			<text dy=".35em" transform="translate(273.4666748046875, 41.79999923706055)" style="opacity: 1;">NL: RUNONCE</text>
		</g>
	</g>
	<g id="n2outer" height="949.5999999999999" width="949.5999999999999" transform="translate(578.6666870117188, 0)">
		<g id="n2inner" height="919.5999999999999" width="919.5999999999999" transform="translate(15, 15)">
			<rect id="backgroundRect" class="background" width="919.5999999999999" height="919.5999999999999" transform="translate(0 0)"></rect>
			<g id="n2background" clip-path="url(#n2MatrixClip)"></g>
			<g id="n2gridlines" clip-path="url(#n2MatrixClip)">
				<g class="horiz_line" transform="">
					<line x2="919.5999999999999"></line>
				</g>
				<g class="horiz_line" transform="translate(0, 83.5999984741211)">
					<line x2="919.5999999999999"></line>
				</g>
				<g class="horiz_line" transform="translate(0, 167.1999969482422)">
					<line x2="919.5999999999999"></line>
				</g>
				<g class="horiz_line" transform="translate(0, 250.8000030517578)">
					<line x2="919.5999999999999"></line>
				</g>
				<g class="horiz_line" transform="translate(0, 334.3999938964844)">
					<line x2="919.5999999999999"></line>
				</g>
				<g class="horiz_line" transform="translate(0, 418)">
					<line x2="919.5999999999999"></line>
				</g>
				<g class="horiz_line" transform="translate(0, 501.6000061035156)">
					<line x2="919.5999999999999"></line>
				</g>
				<g class="vert_line" transform="rotate(-90)">
					<line x1="-919.5999999999999"></line>
				</g>
				<g class="vert_line" transform="translate(83.5999984741211, 0) rotate(-90)">
					<line x1="-919.5999999999999"></line>
				</g>
				<g class="vert_line" transform="translate(167.1999969482422, 0) rotate(-90)">
					<line x1="-919.5999999999999"></line>
				</g>
				<g class="vert_line" transform="translate(250.8000030517578, 0) rotate(-90)">
					<line x1="-919.5999999999999"></line>
				</g>
				<g class="vert_line" transform="translate(334.3999938964844, 0) rotate(-90)">
					<line x1="-919.5999999999999"></line>
				</g>
				<g class="vert_line" transform="translate(418, 0) rotate(-90)">
					<line x1="-919.5999999999999"></line>
				</g>
				<g class="vert_line" transform="translate(501.6000061035156, 0) rotate(-90)">
					<line x1="-919.5999999999999"></line>
				</g>
				<g class="horiz_line" transform="translate(0, 585.2000122070312)">
					<line x2="919.5999999999999"></line>
				</g>
				<g class="horiz_line" transform="translate(0, 668.7999877929688)">
					<line x2="919.5999999999999"></line>
				</g>
				<g class="horiz_line" transform="translate(0, 752.4000244140625)">
					<line x2="919.5999999999999"></line>
				</g>
				<g class="horiz_line" transform="translate(0, 836)">
					<line x2="919.5999999999999"></line>
				</g>
				<g class="vert_line" transform="translate(585.2000122070312, 0) rotate(-90)">
					<line x1="-919.5999999999999"></line>
				</g>
				<g class="vert_line" transform="translate(668.7999877929688, 0) rotate(-90)">
					<line x1="-919.5999999999999"></line>
				</g>
				<g class="vert_line" transform="translate(752.4000244140625, 0) rotate(-90)">
					<line x1="-919.5999999999999"></line>
				</g>
				<g class="vert_line" transform="translate(836, 0) rotate(-90)">
					<line x1="-919.5999999999999"></line>
				</g>
			</g>
			<g id="n2elements" clip-path="url(#n2MatrixClip)">
				<g class="n2cell" transform="translate(41.79999923706055, 41.79999923706055)">
					<rect class="bordR1" style="fill: rgb(85, 85, 85);" x="-41.8" y="-41.8" width="83.6" height="8.36"></rect>
					<rect class="bordR2" style="fill: rgb(85, 85, 85);" x="-41.8" y="-41.8" width="8.36" height="83.6"></rect>
					<rect class="bordR3" style="fill: rgb(85, 85, 85);" x="33.44" y="-41.8" width="8.36" height="83.6"></rect>
					<rect class="bordR4" style="fill: rgb(85, 85, 85);" x="-41.8" y="33.44" width="83.6" height="8.36"></rect>
					<rect class="gMid" id="cellShape_node_1" style="fill: rgb(85, 85, 85);" x="-25.08" y="-25.08" width="50.16" height="50.16"></rect>
				</g>
				<g class="n2cell" transform="translate(209, 41.79999923706055)">
					<use class="vMid" id="cellShape_conn_1_to_53" style="fill: gray;" x="-5" y="-5" xlink:href="#matrix-connector-square" transform="scale(8.359999656677246,8.359999656677246)"></use>
				</g>
				<g class="n2cell" transform="translate(292.6000061035156, 41.79999923706055)">
					<use class="vMid" id="cellShape_conn_1_to_183" style="fill: gray;" x="-5" y="-5" xlink:href="#matrix-connector-square" transform="scale(8.359999656677246,8.359999656677246)"></use>
				</g>
				<g class="n2cell" transform="translate(376.20001220703125, 41.79999923706055)">
					<use class="vMid" id="cellShape_conn_1_to_590" style="fill: gray;" x="-5" y="-5" xlink:href="#matrix-connector-square" transform="scale(8.359999656677246,8.359999656677246)"></use>
				</g>
				<g class="n2cell" transform="translate(459.79998779296875, 41.79999923706055)">
					<use class="vMid" id="cellShape_conn_1_to_663" style="fill: gray;" x="-5" y="-5" xlink:href="#matrix-connector-square" transform="scale(8.359999656677246,8.359999656677246)"></use>
				</g>
				<g class="n2cell" transform="translate(627, 41.79999923706055)">
					<use class="vMid" id="cellShape_conn_1_to_1259" style="fill: gray;" x="-5" y="-5" xlink:href="#matrix-connector-square" transform="scale(8.359999656677246,8.359999656677246)"></use>
				</g>
				<g class="n2cell" transform="translate(710.5999755859375, 41.79999923706055)">
					<use class="vMid" id="cellShape_conn_1_to_1742" style="fill: gray;" x="-5" y="-5" xlink:href="#matrix-connector-square" transform="scale(8.359999656677246,8.359999656677246)"></use>
				</g>
				<g class="n2cell" transform="translate(794.2000122070312, 41.79999923706055)">
					<use class="vMid" id="cellShape_conn_1_to_2105" style="fill: gray;" x="-5" y="-5" xlink:href="#matrix-connector-square" transform="scale(8.359999656677246,8.359999656677246)"></use>
				</g>
				<g class="n2cell" transform="translate(125.4000015258789, 125.4000015258789)">
					<rect class="bordR1" style="fill: rgb(85, 85, 85);" x="-41.8" y="-41.8" width="83.6" height="8.36"></rect>
					<rect class="bordR2" style="fill: rgb(85, 85, 85);" x="-41.8" y="-41.8" width="8.36" height="83.6"></rect>
					<rect class="bordR3" style="fill: rgb(85, 85, 85);" x="33.44" y="-41.8" width="8.36" height="83.6"></rect>
					<rect class="bordR4" style="fill: rgb(85, 85, 85);" x="-41.8" y="33.44" width="83.6" height="8.36"></rect>
					<rect class="gMid" id="cellShape_node_13" style="fill: rgb(85, 85, 85);" x="-25.08" y="-25.08" width="50.16" height="50.16"></rect>
				</g>
				<g class="n2cell" transform="translate(877.7999877929688, 125.4000015258789)">
					<use class="vMid" id="cellShape_conn_13_to_2218" style="fill: gray;" x="-5" y="-5" xlink:href="#matrix-connector-square" transform="scale(8.359999656677246,8.359999656677246)"></use>
				</g>
				<g class="n2cell" transform="translate(292.6000061035156, 125.4000015258789)">
					<use class="vMid" id="cellShape_conn_13_to_183" style="fill: gray;" x="-5" y="-5" xlink:href="#matrix-connector-square" transform="scale(8.359999656677246,8.359999656677246)"></use>
				</g>
				<g class="n2cell" transform="translate(459.79998779296875, 125.4000015258789)">
					<use class="vMid" id="cellShape_conn_13_to_663" style="fill: gray;" x="-5" y="-5" xlink:href="#matrix-connector-square" transform="scale(8.359999656677246,8.359999656677246)"></use>
				</g>
				<g class="n2cell" transform="translate(543.4000244140625, 125.4000015258789)">
					<use class="vMid" id="cellShape_conn_13_to_1205" style="fill: gray;" x="-5" y="-5" xlink:href="#matrix-connector-square" transform="scale(8.359999656677246,8.359999656677246)"></use>
				</g>
				<g class="n2cell" transform="translate(710.5999755859375, 125.4000015258789)">
					<use class="vMid" id="cellShape_conn_13_to_1742" style="fill: gray;" x="-5" y="-5" xlink:href="#matrix-connector-square" transform="scale(8.359999656677246,8.359999656677246)"></use>
				</g>
				<g class="n2cell" transform="translate(794.2000122070312, 125.4000015258789)">
					<use class="vMid" id="cellShape_conn_13_to_2105" style="fill: gray;" x="-5" y="-5" xlink:href="#matrix-connector-square" transform="scale(8.359999656677246,8.359999656677246)"></use>
				</g>
				<g class="n2cell" transform="translate(627, 125.4000015258789)">
					<use class="vMid" id="cellShape_conn_13_to_1259" style="fill: gray;" x="-5" y="-5" xlink:href="#matrix-connector-square" transform="scale(8.359999656677246,8.359999656677246)"></use>
				</g>
				<g class="n2cell" transform="translate(209, 125.4000015258789)">
					<use class="vMid" id="cellShape_conn_13_to_53" style="fill: gray;" x="-5" y="-5" xlink:href="#matrix-connector-square" transform="scale(8.359999656677246,8.359999656677246)"></use>
				</g>
				<g class="n2cell" transform="translate(376.20001220703125, 125.4000015258789)">
					<use class="vMid" id="cellShape_conn_13_to_590" style="fill: gray;" x="-5" y="-5" xlink:href="#matrix-connector-square" transform="scale(8.359999656677246,8.359999656677246)"></use>
				</g>
				<g class="n2cell" transform="translate(209, 209)">
					<rect class="bordR1" style="fill: rgb(85, 85, 85);" x="-41.8" y="-41.8" width="83.6" height="8.36"></rect>
					<rect class="bordR2" style="fill: rgb(85, 85, 85);" x="-41.8" y="-41.8" width="8.36" height="83.6"></rect>
					<rect class="bordR3" style="fill: rgb(85, 85, 85);" x="33.44" y="-41.8" width="8.36" height="83.6"></rect>
					<rect class="bordR4" style="fill: rgb(85, 85, 85);" x="-41.8" y="33.44" width="83.6" height="8.36"></rect>
					<rect class="gMid" id="cellShape_node_53" style="fill: rgb(85, 85, 85);" x="-25.08" y="-25.08" width="50.16" height="50.16"></rect>
				</g>
				<g class="n2cell" transform="translate(209, 209)">
					<rect class="bordR1" style="fill: rgb(85, 85, 85);" x="-41.8" y="-41.8" width="83.6" height="8.36"></rect>
					<rect class="bordR2" style="fill: rgb(85, 85, 85);" x="-41.8" y="-41.8" width="8.36" height="83.6"></rect>
					<rect class="bordR3" style="fill: rgb(85, 85, 85);" x="33.44" y="-41.8" width="8.36" height="83.6"></rect>
					<rect class="bordR4" style="fill: rgb(85, 85, 85);" x="-41.8" y="33.44" width="83.6" height="8.36"></rect>
					<rect class="gMid" id="cellShape_node_53" style="fill: rgb(85, 85, 85);" x="-25.08" y="-25.08" width="50.16" height="50.16"></rect>
				</g>
				<g class="n2cell" transform="translate(292.6000061035156, 209)">
					<use class="vMid" id="cellShape_conn_53_to_183" style="fill: gray;" x="-5" y="-5" xlink:href="#matrix-connector-square" transform="scale(8.359999656677246,8.359999656677246)"></use>
				</g>
				<g class="n2cell" transform="translate(376.20001220703125, 209)">
					<use class="vMid" id="cellShape_conn_53_to_590" style="fill: gray;" x="-5" y="-5" xlink:href="#matrix-connector-square" transform="scale(8.359999656677246,8.359999656677246)"></use>
				</g>
				<g class="n2cell" transform="translate(543.4000244140625, 209)">
					<use class="vMid" id="cellShape_conn_53_to_1205" style="fill: gray;" x="-5" y="-5" xlink:href="#matrix-connector-square" transform="scale(8.359999656677246,8.359999656677246)"></use>
				</g>
				<g class="n2cell" transform="translate(627, 209)">
					<use class="vMid" id="cellShape_conn_53_to_1259" style="fill: gray;" x="-5" y="-5" xlink:href="#matrix-connector-square" transform="scale(8.359999656677246,8.359999656677246)"></use>
				</g>
				<g class="n2cell" transform="translate(459.79998779296875, 209)">
					<use class="vMid" id="cellShape_conn_53_to_663" style="fill: gray;" x="-5" y="-5" xlink:href="#matrix-connector-square" transform="scale(8.359999656677246,8.359999656677246)"></use>
				</g>
				<g class="n2cell" transform="translate(710.5999755859375, 209)">
					<use class="vMid" id="cellShape_conn_53_to_1742" style="fill: gray;" x="-5" y="-5" xlink:href="#matrix-connector-square" transform="scale(8.359999656677246,8.359999656677246)"></use>
				</g>
				<g class="n2cell" transform="translate(794.2000122070312, 209)">
					<use class="vMid" id="cellShape_conn_53_to_2105" style="fill: gray;" x="-5" y="-5" xlink:href="#matrix-connector-square" transform="scale(8.359999656677246,8.359999656677246)"></use>
				</g>
				<g class="n2cell" transform="translate(292.6000061035156, 292.6000061035156)">
					<rect class="bordR1" style="fill: rgb(85, 85, 85);" x="-41.8" y="-41.8" width="83.6" height="8.36"></rect>
					<rect class="bordR2" style="fill: rgb(85, 85, 85);" x="-41.8" y="-41.8" width="8.36" height="83.6"></rect>
					<rect class="bordR3" style="fill: rgb(85, 85, 85);" x="33.44" y="-41.8" width="8.36" height="83.6"></rect>
					<rect class="bordR4" style="fill: rgb(85, 85, 85);" x="-41.8" y="33.44" width="83.6" height="8.36"></rect>
					<rect class="gMid" id="cellShape_node_183" style="fill: rgb(85, 85, 85);" x="-25.08" y="-25.08" width="50.16" height="50.16"></rect>
				</g>
				<g class="n2cell" transform="translate(627, 292.6000061035156)">
					<use class="vMid" id="cellShape_conn_183_to_1259" style="fill: gray;" x="-5" y="-5" xlink:href="#matrix-connector-square" transform="scale(8.359999656677246,8.359999656677246)"></use>
				</g>
				<g class="n2cell" transform="translate(292.6000061035156, 292.6000061035156)">
					<rect class="bordR1" style="fill: rgb(85, 85, 85);" x="-41.8" y="-41.8" width="83.6" height="8.36"></rect>
					<rect class="bordR2" style="fill: rgb(85, 85, 85);" x="-41.8" y="-41.8" width="8.36" height="83.6"></rect>
					<rect class="bordR3" style="fill: rgb(85, 85, 85);" x="33.44" y="-41.8" width="8.36" height="83.6"></rect>
					<rect class="bordR4" style="fill: rgb(85, 85, 85);" x="-41.8" y="33.44" width="83.6" height="8.36"></rect>
					<rect class="gMid" id="cellShape_node_183" style="fill: rgb(85, 85, 85);" x="-25.08" y="-25.08" width="50.16" height="50.16"></rect>
				</g>
				<g class="n2cell" transform="translate(710.5999755859375, 292.6000061035156)">
					<use class="vMid" id="cellShape_conn_183_to_1742" style="fill: gray;" x="-5" y="-5" xlink:href="#matrix-connector-square" transform="scale(8.359999656677246,8.359999656677246)"></use>
				</g>
				<g class="n2cell" transform="translate(877.7999877929688, 292.6000061035156)">
					<use class="vMid" id="cellShape_conn_183_to_2218" style="fill: gray;" x="-5" y="-5" xlink:href="#matrix-connector-square" transform="scale(8.359999656677246,8.359999656677246)"></use>
				</g>
				<g class="n2cell" transform="translate(543.4000244140625, 292.6000061035156)">
					<use class="vMid" id="cellShape_conn_183_to_1205" style="fill: gray;" x="-5" y="-5" xlink:href="#matrix-connector-square" transform="scale(8.359999656677246,8.359999656677246)"></use>
				</g>
				<g class="n2cell" transform="translate(376.20001220703125, 376.20001220703125)">
					<rect class="bordR1" style="fill: rgb(85, 85, 85);" x="-41.8" y="-41.8" width="83.6" height="8.36"></rect>
					<rect class="bordR2" style="fill: rgb(85, 85, 85);" x="-41.8" y="-41.8" width="8.36" height="83.6"></rect>
					<rect class="bordR3" style="fill: rgb(85, 85, 85);" x="33.44" y="-41.8" width="8.36" height="83.6"></rect>
					<rect class="bordR4" style="fill: rgb(85, 85, 85);" x="-41.8" y="33.44" width="83.6" height="8.36"></rect>
					<rect class="gMid" id="cellShape_node_590" style="fill: rgb(85, 85, 85);" x="-25.08" y="-25.08" width="50.16" height="50.16"></rect>
				</g>
				<g class="n2cell" transform="translate(794.2000122070312, 376.20001220703125)">
					<use class="vMid" id="cellShape_conn_590_to_2105" style="fill: gray;" x="-5" y="-5" xlink:href="#matrix-connector-square" transform="scale(8.359999656677246,8.359999656677246)"></use>
				</g>
				<g class="n2cell" transform="translate(543.4000244140625, 376.20001220703125)">
					<use class="vMid" id="cellShape_conn_590_to_1205" style="fill: gray;" x="-5" y="-5" xlink:href="#matrix-connector-square" transform="scale(8.359999656677246,8.359999656677246)"></use>
				</g>
				<g class="n2cell" transform="translate(376.20001220703125, 376.20001220703125)">
					<rect class="bordR1" style="fill: rgb(85, 85, 85);" x="-41.8" y="-41.8" width="83.6" height="8.36"></rect>
					<rect class="bordR2" style="fill: rgb(85, 85, 85);" x="-41.8" y="-41.8" width="8.36" height="83.6"></rect>
					<rect class="bordR3" style="fill: rgb(85, 85, 85);" x="33.44" y="-41.8" width="8.36" height="83.6"></rect>
					<rect class="bordR4" style="fill: rgb(85, 85, 85);" x="-41.8" y="33.44" width="83.6" height="8.36"></rect>
					<rect class="gMid" id="cellShape_node_590" style="fill: rgb(85, 85, 85);" x="-25.08" y="-25.08" width="50.16" height="50.16"></rect>
				</g>
				<g class="n2cell" transform="translate(459.79998779296875, 459.79998779296875)">
					<rect class="bordR1" style="fill: rgb(85, 85, 85);" x="-41.8" y="-41.8" width="83.6" height="8.36"></rect>
					<rect class="bordR2" style="fill: rgb(85, 85, 85);" x="-41.8" y="-41.8" width="8.36" height="83.6"></rect>
					<rect class="bordR3" style="fill: rgb(85, 85, 85);" x="33.44" y="-41.8" width="8.36" height="83.6"></rect>
					<rect class="bordR4" style="fill: rgb(85, 85, 85);" x="-41.8" y="33.44" width="83.6" height="8.36"></rect>
					<rect class="gMid" id="cellShape_node_663" style="fill: rgb(85, 85, 85);" x="-25.08" y="-25.08" width="50.16" height="50.16"></rect>
				</g>
				<g class="n2cell" transform="translate(459.79998779296875, 459.79998779296875)">
					<rect class="bordR1" style="fill: rgb(85, 85, 85);" x="-41.8" y="-41.8" width="83.6" height="8.36"></rect>
					<rect class="bordR2" style="fill: rgb(85, 85, 85);" x="-41.8" y="-41.8" width="8.36" height="83.6"></rect>
					<rect class="bordR3" style="fill: rgb(85, 85, 85);" x="33.44" y="-41.8" width="8.36" height="83.6"></rect>
					<rect class="bordR4" style="fill: rgb(85, 85, 85);" x="-41.8" y="33.44" width="83.6" height="8.36"></rect>
					<rect class="gMid" id="cellShape_node_663" style="fill: rgb(85, 85, 85);" x="-25.08" y="-25.08" width="50.16" height="50.16"></rect>
				</g>
				<g class="n2cell" transform="translate(794.2000122070312, 459.79998779296875)">
					<use class="vMid" id="cellShape_conn_663_to_2105" style="fill: gray;" x="-5" y="-5" xlink:href="#matrix-connector-square" transform="scale(8.359999656677246,8.359999656677246)"></use>
				</g>
				<g class="n2cell" transform="translate(543.4000244140625, 459.79998779296875)">
					<use class="vMid" id="cellShape_conn_663_to_1205" style="fill: gray;" x="-5" y="-5" xlink:href="#matrix-connector-square" transform="scale(8.359999656677246,8.359999656677246)"></use>
				</g>
				<g class="n2cell" transform="translate(543.4000244140625, 543.4000244140625)">
					<rect class="bordR1" style="fill: rgb(85, 85, 85);" x="-41.8" y="-41.8" width="83.6" height="8.36"></rect>
					<rect class="bordR2" style="fill: rgb(85, 85, 85);" x="-41.8" y="-41.8" width="8.36" height="83.6"></rect>
					<rect class="bordR3" style="fill: rgb(85, 85, 85);" x="33.44" y="-41.8" width="8.36" height="83.6"></rect>
					<rect class="bordR4" style="fill: rgb(85, 85, 85);" x="-41.8" y="33.44" width="83.6" height="8.36"></rect>
					<rect class="gMid" id="cellShape_node_1205" style="fill: rgb(85, 85, 85);" x="-25.08" y="-25.08" width="50.16" height="50.16"></rect>
				</g>
				<g class="n2cell" transform="translate(794.2000122070312, 543.4000244140625)">
					<use class="vMid" id="cellShape_conn_1205_to_2105" style="fill: gray;" x="-5" y="-5" xlink:href="#matrix-connector-square" transform="scale(8.359999656677246,8.359999656677246)"></use>
				</g>
				<g class="n2cell" transform="translate(543.4000244140625, 543.4000244140625)">
					<rect class="bordR1" style="fill: rgb(85, 85, 85);" x="-41.8" y="-41.8" width="83.6" height="8.36"></rect>
					<rect class="bordR2" style="fill: rgb(85, 85, 85);" x="-41.8" y="-41.8" width="8.36" height="83.6"></rect>
					<rect class="bordR3" style="fill: rgb(85, 85, 85);" x="33.44" y="-41.8" width="8.36" height="83.6"></rect>
					<rect class="bordR4" style="fill: rgb(85, 85, 85);" x="-41.8" y="33.44" width="83.6" height="8.36"></rect>
					<rect class="gMid" id="cellShape_node_1205" style="fill: rgb(85, 85, 85);" x="-25.08" y="-25.08" width="50.16" height="50.16"></rect>
				</g>
				<g class="n2cell" transform="translate(710.5999755859375, 543.4000244140625)">
					<use class="vMid" id="cellShape_conn_1205_to_1742" style="fill: gray;" x="-5" y="-5" xlink:href="#matrix-connector-square" transform="scale(8.359999656677246,8.359999656677246)"></use>
				</g>
				<g class="n2cell" transform="translate(292.6000061035156, 543.4000244140625)">
					<use class="vMid" id="cellShape_conn_1205_to_183" style="fill: gray;" x="-5" y="-5" xlink:href="#matrix-connector-square" transform="rotate(180) scale(8.359999656677246,8.359999656677246)"></use>
				</g>
				<g class="n2cell" transform="translate(459.79998779296875, 543.4000244140625)">
					<use class="vMid" id="cellShape_conn_1205_to_663" style="fill: gray;" x="-5" y="-5" xlink:href="#matrix-connector-square" transform="rotate(180) scale(8.359999656677246,8.359999656677246)"></use>
				</g>
				<g class="n2cell" transform="translate(627, 627)">
					<rect class="bordR1" style="fill: rgb(85, 85, 85);" x="-41.8" y="-41.8" width="83.6" height="8.36"></rect>
					<rect class="bordR2" style="fill: rgb(85, 85, 85);" x="-41.8" y="-41.8" width="8.36" height="83.6"></rect>
					<rect class="bordR3" style="fill: rgb(85, 85, 85);" x="33.44" y="-41.8" width="8.36" height="83.6"></rect>
					<rect class="bordR4" style="fill: rgb(85, 85, 85);" x="-41.8" y="33.44" width="83.6" height="8.36"></rect>
					<rect class="gMid" id="cellShape_node_1259" style="fill: rgb(85, 85, 85);" x="-25.08" y="-25.08" width="50.16" height="50.16"></rect>
				</g>
				<g class="n2cell" transform="translate(710.5999755859375, 627)">
					<use class="vMid" id="cellShape_conn_1259_to_1742" style="fill: gray;" x="-5" y="-5" xlink:href="#matrix-connector-square" transform="scale(8.359999656677246,8.359999656677246)"></use>
				</g>
				<g class="n2cell" transform="translate(627, 627)">
					<rect class="bordR1" style="fill: rgb(85, 85, 85);" x="-41.8" y="-41.8" width="83.6" height="8.36"></rect>
					<rect class="bordR2" style="fill: rgb(85, 85, 85);" x="-41.8" y="-41.8" width="8.36" height="83.6"></rect>
					<rect class="bordR3" style="fill: rgb(85, 85, 85);" x="33.44" y="-41.8" width="8.36" height="83.6"></rect>
					<rect class="bordR4" style="fill: rgb(85, 85, 85);" x="-41.8" y="33.44" width="83.6" height="8.36"></rect>
					<rect class="gMid" id="cellShape_node_1259" style="fill: rgb(85, 85, 85);" x="-25.08" y="-25.08" width="50.16" height="50.16"></rect>
				</g>
				<g class="n2cell" transform="translate(710.5999755859375, 710.5999755859375)">
					<rect class="bordR1" style="fill: rgb(85, 85, 85);" x="-41.8" y="-41.8" width="83.6" height="8.36"></rect>
					<rect class="bordR2" style="fill: rgb(85, 85, 85);" x="-41.8" y="-41.8" width="8.36" height="83.6"></rect>
					<rect class="bordR3" style="fill: rgb(85, 85, 85);" x="33.44" y="-41.8" width="8.36" height="83.6"></rect>
					<rect class="bordR4" style="fill: rgb(85, 85, 85);" x="-41.8" y="33.44" width="83.6" height="8.36"></rect>
					<rect class="gMid" id="cellShape_node_1742" style="fill: rgb(85, 85, 85);" x="-25.08" y="-25.08" width="50.16" height="50.16"></rect>
				</g>
				<g class="n2cell" transform="translate(710.5999755859375, 710.5999755859375)">
					<rect class="bordR1" style="fill: rgb(85, 85, 85);" x="-41.8" y="-41.8" width="83.6" height="8.36"></rect>
					<rect class="bordR2" style="fill: rgb(85, 85, 85);" x="-41.8" y="-41.8" width="8.36" height="83.6"></rect>
					<rect class="bordR3" style="fill: rgb(85, 85, 85);" x="33.44" y="-41.8" width="8.36" height="83.6"></rect>
					<rect class="bordR4" style="fill: rgb(85, 85, 85);" x="-41.8" y="33.44" width="83.6" height="8.36"></rect>
					<rect class="gMid" id="cellShape_node_1742" style="fill: rgb(85, 85, 85);" x="-25.08" y="-25.08" width="50.16" height="50.16"></rect>
				</g>
				<g class="n2cell" transform="translate(794.2000122070312, 794.2000122070312)">
					<rect class="bordR1" style="fill: rgb(85, 85, 85);" x="-41.8" y="-41.8" width="83.6" height="8.36"></rect>
					<rect class="bordR2" style="fill: rgb(85, 85, 85);" x="-41.8" y="-41.8" width="8.36" height="83.6"></rect>
					<rect class="bordR3" style="fill: rgb(85, 85, 85);" x="33.44" y="-41.8" width="8.36" height="83.6"></rect>
					<rect class="bordR4" style="fill: rgb(85, 85, 85);" x="-41.8" y="33.44" width="83.6" height="8.36"></rect>
					<rect class="gMid" id="cellShape_node_2105" style="fill: rgb(85, 85, 85);" x="-25.08" y="-25.08" width="50.16" height="50.16"></rect>
				</g>
				<g class="n2cell" transform="translate(794.2000122070312, 794.2000122070312)">
					<rect class="bordR1" style="fill: rgb(85, 85, 85);" x="-41.8" y="-41.8" width="83.6" height="8.36"></rect>
					<rect class="bordR2" style="fill: rgb(85, 85, 85);" x="-41.8" y="-41.8" width="8.36" height="83.6"></rect>
					<rect class="bordR3" style="fill: rgb(85, 85, 85);" x="33.44" y="-41.8" width="8.36" height="83.6"></rect>
					<rect class="bordR4" style="fill: rgb(85, 85, 85);" x="-41.8" y="33.44" width="83.6" height="8.36"></rect>
					<rect class="gMid" id="cellShape_node_2105" style="fill: rgb(85, 85, 85);" x="-25.08" y="-25.08" width="50.16" height="50.16"></rect>
				</g>
				<g class="n2cell" transform="translate(877.7999877929688, 794.2000122070312)">
					<use class="vMid" id="cellShape_conn_2105_to_2218" style="fill: gray;" x="-5" y="-5" xlink:href="#matrix-connector-square" transform="scale(8.359999656677246,8.359999656677246)"></use>
				</g>
				<g class="n2cell" transform="translate(877.7999877929688, 877.7999877929688)">
					<rect class="bordR1" style="fill: rgb(85, 85, 85);" x="-41.8" y="-41.8" width="83.6" height="8.36"></rect>
					<rect class="bordR2" style="fill: rgb(85, 85, 85);" x="-41.8" y="-41.8" width="8.36" height="83.6"></rect>
					<rect class="bordR3" style="fill: rgb(85, 85, 85);" x="33.44" y="-41.8" width="8.36" height="83.6"></rect>
					<rect class="bordR4" style="fill: rgb(85, 85, 85);" x="-41.8" y="33.44" width="83.6" height="8.36"></rect>
					<rect class="gMid" id="cellShape_node_2218" style="fill: rgb(85, 85, 85);" x="-25.08" y="-25.08" width="50.16" height="50.16"></rect>
				</g>
				<g class="n2cell" transform="translate(877.7999877929688, 877.7999877929688)">
					<rect class="bordR1" style="fill: rgb(85, 85, 85);" x="-41.8" y="-41.8" width="83.6" height="8.36"></rect>
					<rect class="bordR2" style="fill: rgb(85, 85, 85);" x="-41.8" y="-41.8" width="8.36" height="83.6"></rect>
					<rect class="bordR3" style="fill: rgb(85, 85, 85);" x="33.44" y="-41.8" width="8.36" height="83.6"></rect>
					<rect class="bordR4" style="fill: rgb(85, 85, 85);" x="-41.8" y="33.44" width="83.6" height="8.36"></rect>
					<rect class="gMid" id="cellShape_node_2218" style="fill: rgb(85, 85, 85);" x="-25.08" y="-25.08" width="50.16" height="50.16"></rect>
				</g>
			</g>
			<g id="n2componentBoxes" clip-path="url(#n2MatrixClip)"></g>
			<g id="n2arrows"></g>
		</g>
		<g id="n2top" class="offgridLabel" transform="translate(15 0)" width="919.5999999999999" height="13"></g>
		<g id="n2left" class="offgridLabel"></g>
		<g id="n2right" class="offgridLabel"></g>
		<g id="n2bottom" class="offgridLabel" transform="translate(0 919.599999999999913)" width="949.5999999999999" height="13"></g>
	</g>
	<g id="text-width-renderer" class="partition_group">
		<text x="-200">range_comp</text>
	</g>
</svg>